<?xml version="1.0" standalone="no"?>
<!DOCTYPE svg PUBLIC "-//W3C//DTD SVG 20010904//EN"
 "http://www.w3.org/TR/2001/REC-SVG-20010904/DTD/svg10.dtd">
<svg version="1.0" xmlns="http://www.w3.org/2000/svg"
 width="96.000000pt" height="96.000000pt" viewBox="0 0 96.000000 96.000000"
 preserveAspectRatio="xMidYMid meet">
<metadata>
Created by potrace 1.16, written by Peter Selinger 2001-2019
</metadata>
<g transform="translate(0.000000,96.000000) scale(0.100000,-0.100000)"
fill="#000000" stroke="none">
<path d="M340 803 c-67 -24 -145 -107 -165 -176 -12 -43 -21 -56 -39 -61 -34
-8 -84 -69 -92 -111 -20 -106 56 -195 166 -195 l40 0 0 40 0 40 -40 0 c-80 0
-119 82 -65 135 13 14 35 25 48 25 32 0 43 15 51 70 9 58 39 105 89 138 34 22
52 27 107 27 85 0 138 -31 175 -105 27 -54 27 -54 96 -50 39 1 52 -3 82 -30
23 -20 39 -44 43 -65 13 -71 -37 -145 -97 -145 -27 0 -29 -3 -29 -40 0 -38 1
-40 32 -40 96 0 173 87 173 195 0 111 -70 193 -175 203 -43 4 -53 9 -65 32
-53 102 -212 156 -335 113z"/>
<path d="M440 328 l0 -92 -28 27 -28 27 -27 -28 -27 -28 68 -67 c37 -37 74
-67 83 -67 16 0 139 119 139 135 0 5 -10 19 -22 32 l-22 23 -28 -27 -28 -27 0
92 0 92 -40 0 -40 0 0 -92z"/>
</g>
</svg>
